<?xml version="1.0"?><svg enable-background="new 0 0 216 148" id="icloud" version="1.1" viewBox="0 0 216 148" xml:space="preserve" xmlns="http://www.w3.org/2000/svg" xmlns:xlink="http://www.w3.org/1999/xlink"><path d="M175.9961,52.668C176,52.4453,176,52.2227,176,52c0-28.6719-23.3281-52-52-52  c-19.5039,0-37.0703,10.7383-46.0117,27.7422C73.7617,25.3086,68.9375,24,64,24c-15.4375,0-28,12.5625-28,28  c0,0.5,0.0117,1,0.0391,1.5C14.9414,58.8789,0,77.8633,0,100c0,26.4688,21.5312,48,48,48h124c0.5234,0,1.0273-0.1094,1.4844-0.3086  C197.8008,144.9414,216,124.6328,216,100C216,76.5977,198.7148,56.5156,175.9961,52.668z" fill="#314E55"/><path d="M171.6406,139.8359c-0.2773,0.0234-0.543,0.082-0.8008,0.1641H48c-22.0547,0-40-17.9453-40-40  c0-19.5156,13.9336-36.0938,33.1328-39.4141c1.0586-0.1836,2-0.7852,2.6094-1.6719s0.8398-1.9805,0.6328-3.0352  C44.125,54.6016,44,53.2969,44,52c0-11.0273,8.9727-20,20-20c4.7656,0,9.3789,1.7031,12.9883,4.793  c0.9766,0.8281,2.2812,1.1445,3.5391,0.8516c1.2461-0.3008,2.2734-1.1836,2.7617-2.3672C90.1055,18.707,106.0859,8,124,8  c24.2617,0,44,19.7383,44,44c0,1.2852-0.0547,2.5586-0.1641,3.8125c-0.0938,1.0586,0.2383,2.1094,0.9219,2.9219  c0.6836,0.8164,1.6602,1.3242,2.7188,1.4141C191.957,61.9102,208,79.418,208,100C208,120.8438,192.3672,137.9688,171.6406,139.8359z  " fill="#81A4E3"/></svg>